<?xml version="1.0" encoding="UTF-8"?>
<svg id="Layer_1" xmlns="http://www.w3.org/2000/svg" version="1.1" viewBox="0 0 800.08 992.55">
  <!-- Generator: Adobe Illustrator 29.8.1, SVG Export Plug-In . SVG Version: 2.1.1 Build 2)  -->
  <defs>
    <style>
      .st0 {
        fill: none;
        stroke-width: 11.12px;
      }

      .st0, .st1 {
        stroke: #1d1753;
        stroke-miterlimit: 10;
      }

      .st2 {
        fill: #85bcf5;
      }

      .st1 {
        fill: #f1fafe;
        stroke-width: 11.03px;
      }
    </style>
  </defs>
  <g id="Layer_3">
    <ellipse class="st2" cx="387.32" cy="505.37" rx="229.92" ry="296.32" transform="translate(-197.3 757.63) rotate(-75.87)"/>
  </g>
  <g id="Layer_2">
    <path class="st1" d="M696.68,560.44c-1.95,1.22-2.86,3.68-2.25,5.98,1.32,4.86,2.06,9.91,2.21,15.13,1.18,39.86-32.12,61.93-76.65,63.39-39.64,1.3-78.23-11.56-85.24-45.07-.55-2.64-2.81-4.52-5.38-4.28-4.8.47-7.97-.49-14.53-.29-39.74,1.31-75.21-16.98-95.7-45.49-8.59-11.95-24.08-15.68-37.1-9.6-10,4.67-21.23,7.44-33.16,7.85-43.52,1.42-79.79-29.7-80.98-69.56-.92-30.7,19.25-57.63,48.5-69.01,2.29-.88,3.61-3.36,3.19-5.89-.47-2.86-.75-5.78-.84-8.75-1.18-39.86,33.14-73.33,76.7-74.75h0c2.06-.08,3.92-1.39,4.65-3.4,10.21-28.05,38.64-48.78,72.69-49.9,38.85-1.27,71.93,23.38,79.42,57.04.69,3.06,3.61,4.9,6.5,3.97,7.38-2.38,15.27-3.8,23.49-4.07,43.52-1.42,79.79,29.7,80.98,69.56.29,10.07-1.67,19.73-5.5,28.56-1.44,3.33.81,7.04,4.25,7.38,38.2,3.89,68.26,32.93,69.34,69.16.75,25.55-13.1,48.49-34.62,62.03h.01Z"/>
    <polyline class="st0" points="534.75 599.86 432.66 445.29 175.09 645.03"/>
  </g>
</svg>